# xmcd
#
# Track frame offsets:
#	150
#	15495
#	32509
#	44496
#	57629
#	74273
#	88125
#	100993
#	118620
#	134709
#	148077
#	162415
#	176012
#	193804
#	208906
#	223422
#	242944
#	258645
#
# Disc length: 3638 seconds
#
# Revision: 1
# Processed by: cddbd v1.5.2PL0 Copyright (c) Steve Scherf et al.
# Submitted via: audiograbber 1.83.01
#
DISCID=280e3412
DTITLE=The Country Dans Kings - Country Line Dance Fun
DYEAR=1900
DGENRE=Country
TTITLE0=My Maria
TTITLE1=Two Pina Coladas
TTITLE2=Little Bitty
TTITLE3=Perfect Love
TTITLE4=Here Comes The Train
TTITLE5=A Little More Love
TTITLE6=Then What
TTITLE7=There Goes
TTITLE8=A Broken Wing
TTITLE9=Any Minute Show
TTITLE10=Somebody Slap Me
TTITLE11=Round About Way
TTITLE12=Dream Walkin'
TTITLE13=You And Only You
TTITLE14=How A Cowgirl Says Goodbay
TTITLE15=To Have You Back Again
TTITLE16=I'd Rather Ride Around With You
TTITLE17=Sad Lokin' Moon 
EXTD=
EXTT0=
EXTT1=
EXTT2=
EXTT3=
EXTT4=
EXTT5=
EXTT6=
EXTT7=
EXTT8=
EXTT9=
EXTT10=
EXTT11=
EXTT12=
EXTT13=
EXTT14=
EXTT15=
EXTT16=
EXTT17=
PLAYORDER=
